<svg width="19" height="19" viewBox="0 0 19 19" fill="none" xmlns="http://www.w3.org/2000/svg">
<path fill-rule="evenodd" clip-rule="evenodd" d="M2.0999 8.06002C2.0999 6.21676 2.83213 4.449 4.13551 3.14562C5.43888 1.84225 7.20664 1.11002 9.0499 1.11002C10.8932 1.11002 12.6609 1.84225 13.9643 3.14562C15.2677 4.449 15.9999 6.21676 15.9999 8.06002C15.9999 9.90327 15.2677 11.671 13.9643 12.9744C12.6609 14.2778 10.8932 15.01 9.0499 15.01C7.20664 15.01 5.43888 14.2778 4.13551 12.9744C2.83213 11.671 2.0999 9.90327 2.0999 8.06002ZM9.0399 0.0100149C7.74896 0.0112435 6.47726 0.322922 5.33205 0.918758C4.18685 1.51459 3.20174 2.37711 2.45982 3.43355C1.71789 4.48999 1.24093 5.70937 1.06915 6.98883C0.897368 8.26828 1.03581 9.57029 1.47281 10.785C1.9098 11.9997 2.63252 13.0915 3.58001 13.9683C4.5275 14.8451 5.67196 15.4812 6.91686 15.8229C8.16175 16.1646 9.47056 16.2019 10.7329 15.9316C11.9952 15.6613 13.174 15.0915 14.1699 14.27L17.9199 18.02C17.9718 18.0725 18.0335 18.1143 18.1015 18.143C18.1695 18.1717 18.2425 18.1867 18.3164 18.1872C18.3902 18.1876 18.4634 18.1735 18.5318 18.1457C18.6001 18.1179 18.6624 18.0769 18.7149 18.025C18.7674 17.9731 18.8092 17.9114 18.8379 17.8434C18.8666 17.7754 18.8816 17.7024 18.882 17.6286C18.8825 17.5547 18.8684 17.4815 18.8406 17.4132C18.8128 17.3448 18.7718 17.2825 18.7199 17.23L14.9799 13.5C16.0394 12.3483 16.7402 10.9128 16.9966 9.36905C17.253 7.82532 17.0539 6.24032 16.4237 4.80795C15.7934 3.37559 14.7594 2.15798 13.448 1.30407C12.1366 0.45017 10.6048 -0.00299597 9.0399 1.49064e-05V0.0100149Z" fill="#757575"/>
</svg>
